<svg xmlns="http://www.w3.org/2000/svg" width="61.928" height="44.888" viewBox="0 0 61.928 44.888">
  <g id="delete" transform="translate(-0.001 -0.019)">
    <path id="Shape" d="M51.778,44.887H24.334a12.058,12.058,0,0,1-8.794-3.8L1.395,25.942a5.1,5.1,0,0,1,0-7.01L15.54,3.8A12.032,12.032,0,0,1,24.334,0H51.778a10.073,10.073,0,0,1,10.15,9.97V34.917A10.073,10.073,0,0,1,51.778,44.887ZM24.35,3.047a8.943,8.943,0,0,0-6.521,2.808L3.688,21a2.073,2.073,0,0,0,0,2.882L17.818,39.019a8.926,8.926,0,0,0,6.516,2.812H51.793a7,7,0,0,0,7.047-6.925V9.969a6.993,6.993,0,0,0-7.047-6.922Z" transform="translate(0 0.02)" fill="#211f1f"/>
    <path id="Shape-2" data-name="Shape" d="M.444,16.633a1.555,1.555,0,0,0,1.1.448,1.555,1.555,0,0,0,1.1-.448l6.048-5.942,6.048,5.942a1.578,1.578,0,0,0,2.2,0,1.5,1.5,0,0,0,0-2.151L10.883,8.54,16.931,2.6a1.5,1.5,0,0,0,0-2.151,1.562,1.562,0,0,0-2.189,0L8.694,6.39,2.646.448a1.562,1.562,0,0,0-2.189,0,1.5,1.5,0,0,0,0,2.151L6.505,8.54.457,14.482A1.508,1.508,0,0,0,.444,16.633Z" transform="translate(28.079 13.918)" fill="#211f1f"/>
  </g>
</svg>
