<svg id="Logo" xmlns="http://www.w3.org/2000/svg" width="102.537" height="27.3" viewBox="0 0 102.537 27.3">
  <path id="_-Mania" data-name="-Mania" d="M66.308,21.7a2.944,2.944,0,0,1-1-.47,2.768,2.768,0,0,1-.823-.946,5.839,5.839,0,0,1-.527-1.59,12.215,12.215,0,0,1-.2-2.35,7.355,7.355,0,0,1,.721-3.649,4.775,4.775,0,0,1,2.16-1.768c.5-.236,1.644-.66,3.49-1.3V9.6c0-.265,0-.473,0-.636s-.008-.345-.012-.55c0-.166-.01-.33-.02-.489-.008-.131-.02-.262-.034-.4A2.31,2.31,0,0,0,70,7.184a1.982,1.982,0,0,0-.085-.256.676.676,0,0,0-.12-.213,1.219,1.219,0,0,0-.151-.136.574.574,0,0,0-.2-.085,1.3,1.3,0,0,0-.252-.023c-.6,0-.9.337-.9,1V8.7H64.04c-.008-.147-.012-.347-.012-.6A5.188,5.188,0,0,1,65.265,4.28,5.819,5.819,0,0,1,69.41,3.065a6.363,6.363,0,0,1,1.82.26,5.918,5.918,0,0,1,1.636.783A3.715,3.715,0,0,1,74.08,5.543a4.666,4.666,0,0,1,.457,2.1V21.594H70.19v-1.9a2.937,2.937,0,0,1-1.012,1.465,2.618,2.618,0,0,1-1.71.66A5.219,5.219,0,0,1,66.308,21.7Zm2.3-8.5a2.592,2.592,0,0,0-.392,1.435v2.137c0,1.076.329,1.621.977,1.621a.766.766,0,0,0,.466-.144.934.934,0,0,0,.29-.38,1.877,1.877,0,0,0,.136-.454,2.781,2.781,0,0,0,.035-.45v-4.82A3.128,3.128,0,0,0,68.6,13.2ZM34.875,21.7a2.862,2.862,0,0,1-1-.469,2.761,2.761,0,0,1-.823-.946,5.793,5.793,0,0,1-.527-1.587,12.281,12.281,0,0,1-.2-2.35,7.381,7.381,0,0,1,.72-3.653A4.789,4.789,0,0,1,35.2,10.925c.5-.236,1.644-.66,3.49-1.3V9.6c0-.265,0-.473,0-.636s-.007-.346-.012-.551c0-.168-.01-.331-.019-.484-.008-.13-.02-.263-.034-.4a2.334,2.334,0,0,0-.059-.338,2.028,2.028,0,0,0-.085-.256.73.73,0,0,0-.12-.213,1.373,1.373,0,0,0-.151-.136.556.556,0,0,0-.2-.085,1.29,1.29,0,0,0-.252-.023c-.6,0-.9.337-.9,1V8.7H32.606c-.007-.148-.012-.347-.012-.6a5.192,5.192,0,0,1,1.237-3.828c.82-.806,2.214-1.213,4.145-1.213a6.394,6.394,0,0,1,1.82.259,5.972,5.972,0,0,1,1.636.784,3.716,3.716,0,0,1,1.214,1.435,4.678,4.678,0,0,1,.457,2.1V21.594H38.757v-1.9a2.905,2.905,0,0,1-1.013,1.466,2.619,2.619,0,0,1-1.71.66A5.168,5.168,0,0,1,34.875,21.7Zm2.3-8.5a2.588,2.588,0,0,0-.392,1.435v2.137c0,1.076.329,1.621.977,1.621a.773.773,0,0,0,.466-.143.931.931,0,0,0,.29-.381,1.918,1.918,0,0,0,.136-.449,2.884,2.884,0,0,0,.035-.454v-4.82A3.128,3.128,0,0,0,37.171,13.2Zm20.69,8.392V3.272h4.37V21.595Zm-6.311,0V7.923a2.136,2.136,0,0,0-.232-1.013.78.78,0,0,0-.744-.439.83.83,0,0,0-.537.176,1.117,1.117,0,0,0-.323.4,2.359,2.359,0,0,0-.165.592,4.509,4.509,0,0,0-.068.562c0,.1,0,.218-.005.361v13.03H45.105V3.272h4.369v2.1a2.933,2.933,0,0,1,1-1.746,2.8,2.8,0,0,1,1.764-.562,3.376,3.376,0,0,1,2.673,1.081,4.927,4.927,0,0,1,.952,3.326V21.595Zm-24.963,0V7.568L24.365,21.595H20.507L18.139,7.568V21.595H14.014V2.148h6.543l1.806,10.144L24.158,2.148h6.6V21.595ZM0,15.381V12.549H6.3v2.832ZM57.861,2.148V0h4.37V2.148Z" transform="translate(28 2)" fill="#222220"/>
  <path id="F" d="M8.073,27.3a1.567,1.567,0,0,0,1.4-.741l9.555-13.1c.546-.819.234-1.443-.741-1.443H12.714L22.581,1.443C23.322.7,23.01,0,21.957,0H1.17A1.05,1.05,0,0,0,0,1.17V26.13A1.05,1.05,0,0,0,1.17,27.3Z" fill="#506bfa"/>
</svg>
