<svg xmlns="http://www.w3.org/2000/svg" width="43.902" height="53.977" viewBox="0 0 43.902 53.977">
  <g id="placeholder_3_" data-name="placeholder(3)" transform="translate(-0.094 0.001)">
    <path id="Shape" d="M11.356,22.582A11.292,11.292,0,1,1,22.712,11.3,11.339,11.339,0,0,1,11.356,22.582Zm0-19.865A8.58,8.58,0,1,0,19.99,11.3,8.617,8.617,0,0,0,11.356,2.717Z" transform="translate(10.672 10.756)" fill="#211f1f"/>
    <path id="Shape-2" data-name="Shape" d="M21.955,53.976a3.175,3.175,0,0,1-2.009-.715C9.2,44.394,4.262,36.211,2.01,30.908A20.661,20.661,0,0,1,.545,26.623C.426,26.154.39,25.9.39,25.9A21.791,21.791,0,0,1,21.154.011C21.411,0,21.676,0,21.932,0A21.783,21.783,0,0,1,43.5,25.939c-.043.252-.087.466-.144.7a21.481,21.481,0,0,1-1.48,4.32c-2.252,5.294-7.187,13.461-17.909,22.307A3.2,3.2,0,0,1,21.955,53.976ZM21.931,2.7c-.226,0-.453,0-.675.012A19.1,19.1,0,0,0,3.066,25.43a.136.136,0,0,0,.006.035.132.132,0,0,1,.006.035l.01.049c.029.141.064.3.1.468a18.937,18.937,0,0,0,1.3,3.8c2.146,5.045,6.867,12.845,17.18,21.355a.471.471,0,0,0,.279.1.442.442,0,0,0,.275-.1C32.516,42.689,37.233,34.9,39.379,29.859a19.615,19.615,0,0,0,1.31-3.831c.082-.362.112-.53.112-.552a19.607,19.607,0,0,0,.357-3.667,18.841,18.841,0,0,0-1.515-7.433A19.246,19.246,0,0,0,21.931,2.7Z" transform="translate(0.094)" fill="#211f1f"/>
  </g>
</svg>
