<svg xmlns="http://www.w3.org/2000/svg" width="55.891" height="38.79" viewBox="0 0 55.891 38.79">
  <g id="return_1_" data-name="return(1)" transform="translate(0 -0.105)">
    <path id="Shape" d="M42.009,11.237H3.941l8-8.9A1.394,1.394,0,0,0,11.832.356,1.419,1.419,0,0,0,9.838.468L.823,10.5a3.2,3.2,0,0,0,0,4.285L9.838,24.808a1.419,1.419,0,0,0,1.993.113,1.394,1.394,0,0,0,.114-1.978l-8-8.9H42.009a10.974,10.974,0,1,1,0,21.948H35.287a1.4,1.4,0,1,0,0,2.8h6.722a13.777,13.777,0,1,0,0-27.553Z" transform="translate(0 0.105)" fill="#211f1f"/>
  </g>
</svg>
