<svg xmlns="http://www.w3.org/2000/svg" width="16.002" height="16.999" viewBox="0 0 16.002 16.999">
  <g id="search_4_" data-name="search(4)" transform="translate(0.001 0.001)">
    <path id="Shape" d="M15.126,17a.851.851,0,0,1-.627-.271l-3.975-4.242a6.5,6.5,0,0,1-3.832,1.244A6.787,6.787,0,0,1,0,6.866,6.789,6.789,0,0,1,6.692,0a6.788,6.788,0,0,1,6.69,6.866,6.978,6.978,0,0,1-1.57,4.411l3.945,4.206a.911.911,0,0,1-.026,1.266A.849.849,0,0,1,15.126,17ZM6.689,1.79A5.017,5.017,0,0,0,1.746,6.866a5.015,5.015,0,0,0,4.943,5.072,5.016,5.016,0,0,0,4.946-5.072A5.018,5.018,0,0,0,6.689,1.79Z" fill="#211f1f"/>
  </g>
</svg>
