<svg xmlns="http://www.w3.org/2000/svg" width="17.967" height="19.983" viewBox="0 0 17.967 19.983">
  <g id="shopping-cart_1_" data-name="shopping-cart(1)" transform="translate(0 0)">
    <path id="Shape" d="M13.088,17.744a2.26,2.26,0,0,1,.3-1.129H8.562a2.25,2.25,0,0,1,.3,1.129,2.208,2.208,0,0,1-2.165,2.238,2.205,2.205,0,0,1-2.165-2.238,2.3,2.3,0,0,1,.31-1.15,2.246,2.246,0,0,1-1.912-2.246V2.2L.329,1.067A.561.561,0,0,1,.042.339a.529.529,0,0,1,.7-.3L3.675,1.317l.051.025s.008,0,.012.008a.263.263,0,0,1,.032.021c.008.008.016.012.024.02A.111.111,0,0,0,3.81,1.4a.153.153,0,0,1,.028.025l.012.012.023.025.013.012c0,.008.012.017.015.025a.228.228,0,0,1,.012.02c0,.009.008.013.013.021a.1.1,0,0,1,.015.025s0,.012.008.016a.155.155,0,0,1,.016.032s0,.013,0,.017.008.024.012.037,0,.012,0,.021,0,.02.008.032,0,.024,0,.037a.029.029,0,0,1,0,.016.291.291,0,0,1,0,.058V3.781l13.5,1.926c.008,0,.012,0,.016,0a.094.094,0,0,1,.031,0,.169.169,0,0,0,.02,0,.082.082,0,0,1,.028.008c.008,0,.016,0,.024.008l.023.013.024.013.023.012a.1.1,0,0,0,.024.017c.007,0,.012.008.02.012a.216.216,0,0,0,.023.016c.008,0,.012.013.02.017l.02.021a.046.046,0,0,1,.016.016c0,.008.012.012.016.021s.012.012.015.02a.077.077,0,0,1,.016.021c0,.008.012.016.016.025a.228.228,0,0,0,.012.02c0,.009.008.017.012.025a.07.07,0,0,1,.012.021.3.3,0,0,0,.013.029c0,.008,0,.016.007.024s0,.016.008.024,0,.021.008.029,0,.017,0,.025,0,.02,0,.029a.057.057,0,0,1,0,.024V10.89a2.236,2.236,0,0,1-2.193,2.267H5.121A2.163,2.163,0,0,1,4,12.845v1.5a1.141,1.141,0,0,0,1.121,1.158H15.253a2.24,2.24,0,1,1-2.165,2.238Z" fill="#fff"/>
  </g>
</svg>
